<?xml version="1.0" encoding="UTF-8"?>
<svg enable-background="new 0 0 1644.099 1643.86" version="1.1" viewBox="0 0 1644.099 1643.86" xmlns="http://www.w3.org/2000/svg">
 <path d="m1059.7 970.7c-0.368 0.588-2.623 4.229-2.947 4.711l390.96 251.76c1.17-1.79 1.248-1.912 8.044-12.808-8.572-5.273-392.25-241.32-396.06-243.67z" fill="#CB777F"/>
 <path d="m1266.2 1047.6l-194.96-97.497c-1.45 2.95-0.595 1.31-2.71 5.27l192.75 101.78c3.508-6.637 2.338-4.366 4.914-9.557z" fill="#2F573D"/>
 <path d="m1189.4 1035.6l-125.4-71.967s-1.522 2.55-3.243 5.493l123.66 74.915 4.982-8.441z" fill="#F7697F"/>
 <path d="m1421.5 1163.3c6.056-10.837 5.089-9.095 6.597-11.938-2.122-1.142-353.48-190.26-360.6-194.1-0.748 1.451 0.01 0.029-2.621 4.726 5.648 3.188 353.2 199.37 356.62 201.31z" fill="#3307F1"/>
 <path d="m1343 920.04l-247.64-43.252c-0.25 1.611 0.028-0.021-1.012 5.376l246.71 48.308c1.882-9.822 1.513-7.803 1.948-10.432z" fill="#1D0B0D"/>
 <path d="m1227.1 1e3l-149.32-64.069c-2.629 5.984-1.616 3.798-2.421 5.492l147.84 67.412c0.949-2.032-0.023 0.123 3.9-8.835z" fill="#3B512B"/>
 <path d="m1614.4 913c0.404-3.639 0.221-1.691 1.302-13.723-10.193-0.894-507.44-44.496-517.33-45.363-0.389 4.543-0.246 3.221-0.434 4.722 6.299 0.663 503.01 52.948 516.46 54.364z" fill="#AFB59B"/>
 <path d="m1519.9 943.88c1.445-8.79 1.097-6.496 1.912-12.248-15.963-2.334-414.48-60.607-425.28-62.186-0.307 2.323-0.104 0.997-0.741 4.71 7.441 1.223 412.35 67.79 424.11 69.724z" fill="#455595"/>
 <path d="m1417.7 829.74h-318.26c-0.07 3.513-0.051 2.29-0.086 5.724l318.19 6.504 0.152-12.228z" fill="#3F1939"/>
 <path d="m1586.8 866.49l0.539-14.09c-6.961-0.206-481.21-14.206-488.07-14.408-0.127 3.048-0.088 1.983-0.19 5.104 7.904 0.378 479.85 23.016 487.72 23.394z" fill="#61F79B"/>
 <path d="m1296.9 856.66l-197.97-11.202c-0.262 4.056-0.322 5.326-0.385 5.95l197.68 15.498c0.149-1.623-2e-3 0.429 0.676-10.246z" fill="#FBF70D"/>
 <path d="m1257.3 879.38l-159.65-18.284c-0.485 4.472-0.253 2.543-0.742 5.924l159.21 21.806c0.726-5.138 0.433-2.78 1.185-9.446z" fill="#CFA905"/>
 <path d="m1221.7 971.48l-138.21-49.982c-0.522 1.532 0.166-0.386-2.1 5.585l137.05 53.071c3.302-8.689 2.608-6.814 3.256-8.674z" fill="#337967"/>
 <path d="m1495 1108l4.907-12.016c-14.239-5.66-405.17-161.06-419.37-166.71-1.104 2.664-0.719 1.721-1.824 4.457 20.156 8.438 401.37 168.02 416.28 174.27z" fill="#9FC513"/>
 <path d="m1619.5 1007l2.679-12.349c-11.006-2.282-525.62-108.97-528.36-109.54l-0.897 4.08c14.027 3.139 513 114.77 526.58 117.81z" fill="#438785"/>
 <path d="m1525.9 1074.2c3.117-8.891 2.379-6.713 4.085-11.932-7.892-2.619-432.03-143.38-444.17-147.41-0.628 1.989-0.21 0.756-1.486 4.318 4.225 1.483 432.03 151.68 441.58 155.02z" fill="#6787F9"/>
 <path d="m1207.5 918.73l-115.21-26.987c-0.665 2.683-1.429 5.856-1.429 5.856l114.57 29.591 2.07-8.46z" fill="#1DB721"/>
 <path d="m1458.5 1010.6c0.64-2.167 0.282-0.851 3.136-11.386-17.484-4.68-361.08-96.651-371.38-99.408-1.304 4.854-0.994 3.767-1.269 4.656 16.002 4.597 353.51 101.54 369.52 106.14z" fill="#FF0BB3"/>
 <path d="m1274.9 962.4l-186.62-55.509c-1.269 4.353-0.644 2.307-1.679 5.441l185.39 59.499c1.419-4.359 0.919-2.708 2.913-9.431z" fill="#D591BD"/>
 <path d="m1387.9 1102.9c2.29-4.618 1.259-2.467 5.331-11.177-1.321-0.615-315.59-146.91-318.79-148.4-1.988 4.301-1.295 2.845-2.298 4.829 6.23 3.053 309.71 151.79 315.76 154.75z" fill="#871FBD"/>
 <path d="m946.62 1073s-2.047 0.94-5.01 2.333l193.43 422.88c1.857-0.865 11.886-5.533 13.716-6.425-4.376-9.064-200.19-414.75-202.13-418.78z" fill="#8D99D7"/>
 <path d="m1079 1249l-111.61-187.23c-4.772 2.834-3.014 1.826-5.133 2.99l107.45 189.65c3.442-1.921 1.249-0.651 9.291-5.407z" fill="#9BCD8D"/>
 <path d="m1020.7 1197.5l-66.804-128.22c-2.311 1.24-0.317 0.216-5.675 2.87l63.741 129.77c7.672-3.81 5.384-2.641 8.738-4.42z" fill="#018743"/>
 <path d="m1147.4 1430.2c7.401-3.919 4.824-2.521 11.987-6.509-1.171-2.106-195.11-350.82-199.04-357.89-2.884 1.637-1.871 1.086-4.747 2.578 3.044 5.742 190 358.42 191.8 361.82z" fill="#F72705"/>
 <path d="m1212.6 1183.2l-184.71-170.53c-3.675 3.955-2.495 2.737-3.782 4.031l181.22 174.24c2.007-2.054 0.551-0.516 7.271-7.735z" fill="#A5632D"/>
 <path d="m1071.8 1187.9l-91.158-134.5-5.047 3.328 88.131 136.5c0.461-0.303 7.708-5.066 8.074-5.33z" fill="#E18F63"/>
 <path d="m1444.5 1324.4c6.73-8.381 5.137-6.363 8.56-10.805-8.08-6.277-402.26-312.5-410.1-318.59-1.241 1.644-0.305 0.457-2.95 3.712 4.933 3.972 393.96 317.2 404.49 325.68z" fill="#87E369"/>
 <path d="m1348.4 1299.1l8.215-9.254c-12.149-10.613-315.47-275.59-323.69-282.77-1.914 2.143-1.246 1.388-3.186 3.598 5.591 5.06 309.82 280.43 318.66 288.42z" fill="#8179A3"/>
 <path d="m1324.4 1147.7l-267.58-172.31c-1.86 2.796-1.22 1.822-3.092 4.702l263.94 177.84 6.733-10.229z" fill="#991D8F"/>
 <path d="m1446.6 1270.3c1.529-2.119 0.895-1.199 8.104-11.594-5.739-3.944-396.75-272.67-402.41-276.56-3.139 4.534-1.994 2.942-2.883 4.147 6.438 4.605 390.78 279.42 397.19 284.01z" fill="#57D7F1"/>
 <path d="m1208.3 1104.9l-160.29-116.72c-2.769 3.834-1.444 2.048-3.542 4.758l157.7 120.19c3.195-4.163 1.7-2.15 6.127-8.229z" fill="#EFD357"/>
 <path d="m1162.7 1102.5l-124.24-101.92c-1.195 1.496 0.358-0.416-3.861 4.589l121.97 104.62c6.37-7.539 4.686-5.507 6.133-7.297z" fill="#55B195"/>
 <path d="m1082.7 1160.9l-89.335-116.7c-2.855 2.218-1.831 1.453-4.831 3.614l86.723 118.65c4.513-3.281 2.919-2.086 7.443-5.568z" fill="#FB9BED"/>
 <path d="m1239 1423.4c6.36-4.416 8.044-5.563 10.597-7.441-8.932-12.45-254.16-354.26-263.07-366.68-0.894 0.684-1.304 0.938-3.984 2.785 12.418 17.98 247.27 358.03 256.46 371.34z" fill="#6F81DD"/>
 <path d="m1398 1405.9c5.378-5.304 3.474-3.393 8.886-8.91-8.017-7.878-382.86-376.25-384.86-378.22-1.192 1.239-1.645 1.731-2.984 2.996 10.095 10.233 369.18 374.22 378.96 384.13z" fill="#AF55AB"/>
 <path d="m1283.2 1411.6c2.522-1.944 1.174-0.869 9.832-7.832-5.226-6.468-286.09-354.07-294.13-364.02-3.472 2.812-2.46 2.027-3.609 2.89 2.819 3.612 281.99 361.38 287.91 368.96z" fill="#8F8FDD"/>
 <path d="m1099.4 1108.7l-82.265-85.051c-1.939 1.917-0.369 0.423-4.439 4.194l80.343 86.869c5.406-5.023 3.748-3.447 6.361-6.012z" fill="#AB2929"/>
 <path d="m1260.8 1321.8l8.809-7.825c-12.174-13.394-251.42-276.61-258.59-284.5-2.267 1.982-1.47 1.28-3.668 3.236 11.022 12.572 242.49 276.59 253.45 289.09z" fill="#29496D"/>
 <path d="m1132.4 1182l-126.99-147.59c-2.6 2.184-4.404 3.729-4.404 3.729l123.84 150.24 7.555-6.383z" fill="#2B2BE3"/>
 <path d="m1151.7 1361.3l10.504-6.545c-0.781-1.231-186.52-293.92-188.41-296.9-2.716 1.686-4.556 2.853-4.556 2.853 3.6 5.93 178.97 294.84 182.46 300.59z" fill="#838711"/>
 <path d="m796.41 1097.5c-2.102-0.222-0.195 0.018-5.505-0.739l-65.61 460.36c12.742 1.774 10.203 1.432 14.994 1.991 1.215-9.99 55.581-457.17 56.121-461.61z" fill="#3943A7"/>
 <path d="m812.75 1317.2l7.403-217.85c-4.001-0.146-4.667-0.141-6.015-0.258l-12.142 217.64c2.549 0.187 4.034 0.217 10.754 0.471z" fill="#DFD303"/>
 <path d="m791.54 1242.4l13.077-143.99c-3.831-0.329-2.476-0.188-6.371-0.655l-16.467 143.64c5.972 0.693 3.899 0.478 9.761 1.003z" fill="#3FB591"/>
 <path d="m772.39 1506.6c6.072 0.531 3.731 0.358 13.575 0.993 0.153-2.404 25.506-400.62 26.02-408.69-4.33-0.252-2.543-0.117-5.442-0.394-0.542 6.463-33.825 404.17-34.153 408.09z" fill="#E3F58F"/>
 <path d="m960.82 1334.3l-63.083-243.35c-0.342 0.097-4.908 1.199-5.299 1.295l58.079 244.59c10.738-2.622 9.054-2.2 10.303-2.538z" fill="#0121D1"/>
 <path d="m839.86 1261.9l-3.754-162.44c-3.677 0.029-2.385 0.011-6.149 0.081l0.187 162.48 9.716-0.124z" fill="#0F49ED"/>
 <path d="m1079.6 1578.3c3.378-1.085 5.904-1.994 13.082-4.514-3.411-9.647-169.78-480.26-173.09-489.62-2.938 1.046-3.391 1.231-4.423 1.539 2.006 6.006 160.15 479.76 164.43 492.59z" fill="#8959E9"/>
 <path d="m1012.3 1505.2c10.325-2.804 8.087-2.184 11.958-3.327-4.482-15.497-116.37-402.4-119.4-412.89-1.678 0.516-0.232 0.105-4.57 1.261 1.965 7.281 108.91 403.45 112.02 414.96z" fill="#2D1D0F"/>
 <path d="m1074 1364.7l-132.38-289.42c-1.681 0.804-0.025 0.042-5.109 2.26l126.29 292.13c9.954-4.356 8.186-3.565 11.199-4.969z" fill="#8D67C5"/>
 <path d="m1110.7 1533.9l13.127-5.37c-2.704-6.417-186.93-443.64-189.59-449.97-2.792 1.12-1.79 0.712-4.636 1.886 2.935 7.351 178.18 446.14 181.1 453.46z" fill="#F96591"/>
 <path d="m999.36 1266.1l-71.93-184.78c-0.109 0.041-5.376 2.047-5.486 2.08l67.835 186.32c0.526-0.172 9.062-3.426 9.581-3.623z" fill="#431FC9"/>
 <path d="m962.31 1239.4l-49.47-152.89c-3.441 1.143-2.242 0.768-5.65 1.759l46.05 153.95c5.591-1.656 3.654-1.054 9.07-2.823z" fill="#0733AF"/>
 <path d="m863.68 1245.1l-11.798-146.49c-1.897 0.188-0.057 0.031-6.048 0.408l8.559 146.72c8.72-0.552 6.725-0.398 9.287-0.633z" fill="#5D9FFB"/>
 <path d="m852.86 1550.4l12.904-0.499c-0.758-15.304-21.575-435.47-22.332-450.74-3.041 0.095-1.94 0.056-4.911 0.174 0.694 21.84 13.826 434.9 14.339 451.06z" fill="#4701AD"/>
 <path d="m996.05 1621.9l12.347-2.687c-2.476-10.964-118.22-523.61-118.84-526.35l-4.082 0.889c2.945 14.07 107.72 514.52 110.58 528.15z" fill="#B79BC3"/>
 <path d="m896.28 1564.5c9.787-0.883 7.714-0.68 12.512-1.217-0.885-8.268-48.434-452.62-49.795-465.34-1.976 0.243-0.498 0.096-4.601 0.439 0.4 4.458 40.979 456.05 41.884 466.12z" fill="#3D5BAB"/>
 <path d="m905.96 1210.4l-23.089-116.05c-5.062 0.962-5.347 1.042-5.938 1.123l20.461 116.54c2.206-0.368-0.37 0.091 8.566-1.615z" fill="#5D0FB9"/>
 <path d="m926.13 1476.9c2.91-0.384 4.811-0.721 11.653-1.85-2.974-17.854-61.416-368.71-63.168-379.23-2.955 0.501-3.638 0.644-4.79 0.77 2.437 16.47 53.866 363.84 56.305 380.31z" fill="#531149"/>
 <path d="m894.05 1289.8l-26.717-192.86c-3.487 0.512-2.264 0.354-5.697 0.728l22.611 193.39c6.027-0.691 3.933-0.425 9.803-1.253z" fill="#71E5FB"/>
 <path d="m813.17 1451c1.047 0.036 9.653 0.139 12.345 0.172 0.01-1.457 2.274-348.1 2.297-351.63l-5.472-0.06c-0.181 6.935-8.995 344.78-9.17 351.52z" fill="#69CF45"/>
 <path d="m657.31 1037.3c-2.479-2.108-4.267-3.601-4.267-3.601l-304.67 351.3c3.673 3.144 6.361 5.406 11.524 9.766 6.436-7.738 294.55-354.03 297.41-357.47z" fill="#055D2D"/>
 <path d="m551.94 1230.8l124.27-179.08c-3.015-2.063-1.982-1.331-4.861-3.452l-128.17 176.31c5.218 3.802 3.334 2.466 8.766 6.226z" fill="#89C9E7"/>
 <path d="m574.69 1156.4l89.053-113.9c-0.429-0.322-4.515-3.619-5.004-4.01l-91.71 111.77c8.138 6.541 6.246 5.061 7.661 6.139z" fill="#C91775"/>
 <path d="m415.33 1368.1c9.039 6.922 7.074 5.438 10.868 8.214 1.432-1.938 238.6-322.82 243.41-329.33-1.724-1.237-0.294-0.169-4.333-3.282-3.942 5.116-247.46 321.16-249.95 324.4z" fill="#B59959"/>
 <path d="m667.2 1325.1l78.289-238.89c-3.118-0.996-2.009-0.618-5.162-1.752l-83.175 237.23c6.131 2.162 3.997 1.436 10.048 3.409z" fill="#636187"/>
 <path d="m604.62 1198.9l84.731-138.64c-2.392-1.506-5.123-3.198-5.123-3.198l-87.81 136.71 8.202 5.128z" fill="#4DFB93"/>
 <path d="m635.41 1594.7l13.442 3.28c2.338-9.961 116.4-495.91 118.66-505.57-2.776-0.691-1.831-0.46-4.553-1.111-1.555 6.139-124.23 490.29-127.55 503.4z" fill="#615D97"/>
 <path d="m618.27 1496.8c4.147 1.337 1.956 0.668 11.871 3.628 4.595-15.464 119.31-401.54 122.42-412-4.144-1.213-2.761-0.783-4.536-1.377-2.276 7.189-126.15 398.39-129.75 409.75z" fill="#275387"/>
 <path d="m746 1411.8l44.904-315.08c-3.342-0.447-2.151-0.263-5.543-0.85l-51.468 314.07c7.242 1.195 4.671 0.803 12.107 1.855z" fill="#8D1577"/>
 <path d="m685.55 1574.1c11.778 2.244 9.361 1.795 13.939 2.566 1.19-6.861 82.246-474.34 83.42-481.11-1.856-0.29-0.28-9e-3 -4.932-0.917-1.499 7.772-90.936 471.72-92.427 479.46z" fill="#6DC7C5"/>
 <path d="m736.45 1288.5l39.231-194.36c-0.318-0.049-5.349-1.154-5.743-1.239l-43.504 193.45c8.754 1.904 8.935 1.962 10.016 2.15z" fill="#2DB9F5"/>
 <path d="m719.68 1246.1l40.907-155.4c-6.248-1.699-3.904-1.014-5.71-1.559l-44.359 154.45c2.132 0.63-0.154-0.015 9.162 2.509z" fill="#7F51C3"/>
 <path d="m633.65 1197.6l69.245-129.63c-2.415-1.253-0.572-0.255-5.256-2.888l-72.122 128.06c6.813 3.814 4.711 2.669 8.133 4.466z" fill="#F3A9AD"/>
 <path d="m459.45 1448.6l11.162 6.586c7.637-13.284 217.32-377.99 224.94-391.23-2.476-1.488-1.617-0.978-4.163-2.478-11.23 18.744-223.63 373.25-231.94 387.13z" fill="#2FFDE3"/>
 <path d="m541.54 1586.2c10.738 4.069 9.625 3.642 11.839 4.43 3.836-10.565 183.21-504.56 184.17-507.2-0.739-0.251 0.07 0.047-3.902-1.478-5.118 13.434-187.15 491.24-192.1 504.25z" fill="#A1472B"/>
 <path d="m488.48 1484c6.84 3.577 4.457 2.357 11.217 5.733 3.722-7.436 203.78-407.04 209.5-418.48-2.47-1.205-1.6-0.76-4.085-2.086-2.121 4.062-212.19 406.32-216.64 414.84z" fill="#D38B2D"/>
 <path d="m687.92 1191.2l43.23-110.15s-4.295-1.754-5.584-2.276l-45.714 109.14c0.418 0.171 7.747 3.171 8.068 3.284z" fill="#D99D21"/>
 <path d="m560.97 1426.4l10.815 4.736c7.139-16.633 147.43-343.49 151.63-353.29-2.664-1.173-1.697-0.753-4.434-1.928-6.843 15.177-151.17 335.3-158.01 350.48z" fill="#6B417F"/>
 <path d="m635.04 1251.6l81.684-176.74c-3.448-1.603-4.012-1.834-5.164-2.444l-85.443 174.96c2.099 1.075 3.393 1.65 8.923 4.23z" fill="#E937C7"/>
 <path d="m479.83 1343.4c2.444 1.713 3.987 2.705 10.297 6.86 0.797-1.22 190.41-291.41 192.34-294.37-2.969-1.947-3.505-2.27-4.483-2.978-3.908 5.731-194.36 284.92-198.16 290.49z" fill="#D54DBB"/>
 <path d="m572.29 911.16c-0.583-1.738-0.043-0.042-1.592-5.274l-446.23 130.82c3.722 12.496 3.175 10.693 4.402 14.505 9.598-3.032 439.16-138.7 443.42-140.05z" fill="#D5390F"/>
 <path d="m379.09 1016.9l201.26-83.723c-2.397-5.88-1.622-3.86-2.217-5.474l-203.06 79.237c0.781 2.062 0.037 0.198 4.025 9.96z" fill="#CDC181"/>
 <path d="m438.42 966.67l136.46-47.762c-1.197-3.355-0.539-1.364-2.019-6.001l-137.56 44.495c2.166 6.706 1.323 4.188 3.119 9.268z" fill="#89B597"/>
 <path d="m189.97 1058.8c1.939 5.48 1.126 3.277 4.739 12.806 2.251-0.858 375.12-142.94 382.68-145.82-1.566-4.065-1.008-2.539-1.869-5.039-6.081 2.178-381.71 136.67-385.55 138.05z" fill="#491FCD"/>
 <path d="m425.27 1158.5l194.95-158.72c-3.723-4.625-2.477-3.013-3.453-4.307l-198.13 154.74c1.299 1.692 0.124 0.214 6.63 8.291z" fill="#DDD3D3"/>
 <path d="m440.63 1018.5l146.12-71.063c-0.815-1.598 0.236 0.535-2.559-5.435l-147.68 67.76c4.166 8.918 3.14 6.78 4.119 8.738z" fill="#FF7F45"/>
 <path d="m252.7 1368.1c6.563 7.025 4.806 5.185 9.484 9.995 7.358-7.111 366.29-353.98 373.43-360.88-1.76-1.78-0.714-0.677-3.265-3.448-4.631 4.322-369.76 345.11-379.65 354.34z" fill="#BB95EF"/>
 <path d="m291.31 1276.6l7.991 9.45c12.226-10.526 317.45-273.31 325.72-280.43-1.84-2.196-1.199-1.438-3.101-3.669-5.801 4.819-321.44 267.03-330.61 274.65z" fill="#9D634B"/>
 <path d="m444.53 1274.2l208.52-240.44c-2.571-2.31-1.685-1.521-4.223-3.755l-213.45 236.07 9.157 8.124z" fill="#659F7D"/>
 <path d="m305.87 1377.8c1.009 1 8.203 7.682 10.321 9.653 4.718-5.122 326.14-354.11 330.79-359.16-0.11-0.103-3.612-3.347-3.712-3.452-5.467 5.72-331.95 347.26-337.4 352.96z" fill="#6F1929"/>
 <path d="m503.35 1165.3l138.24-142.14c-3.463-3.358-2.108-2.002-4.22-4.19l-141.31 139.1c3.32 3.405 1.641 1.73 7.282 7.233z" fill="#51BFE5"/>
 <path d="m512.18 1120.5l118.47-108.57c-1.265-1.333 0.037 0.073-4-4.473l-120.83 105.94c6.221 7.01 4.697 5.328 6.358 7.104z" fill="#3D07F7"/>
 <path d="m465.76 1033.1l128.21-71.841c-2.157-3.817-1.568-2.758-2.875-5.263l-129.78 68.96c2.235 4.25 1.042 2.072 4.447 8.144z" fill="#E5534D"/>
 <path d="m183.73 1150.5c4.319 8.664 3.241 6.557 5.871 11.564 13.595-7.069 386.83-201.16 400.39-208.21-1.052-1.96-0.404-0.69-2.181-4.31-19.565 9.729-389.6 193.75-404.08 200.95z" fill="#07EDC5"/>
 <path d="m178.5 1310.5c3.309 4.513 2.072 2.859 7.572 10.063 8.934-6.821 426.66-325.75 428.89-327.45-2.05-2.641-1.337-1.689-2.542-3.367-11.559 8.544-422.72 312.48-433.92 320.76z" fill="#C9E16F"/>
 <path d="m189.07 1196c0.646 1.188 4.492 7.677 6.371 10.857 7.144-4.255 391.1-232.91 402.09-239.46-0.166-0.28-2.226-3.725-2.342-3.958-3.975 2.277-397.78 227.79-406.12 232.56z" fill="#F785A7"/>
 <path d="m514.99 1057l95.844-69.391c-1.918-2.602-0.717-0.908-3.512-4.971l-97.377 67.223c3.806 5.506 2.376 3.494 5.045 7.139z" fill="#89D73F"/>
 <path d="m281.19 1186.5c3.227 4.903 5.926 9.02 6.505 9.834 14.984-10.153 309.45-209.68 318.28-215.66-0.051-0.067-2.629-4-2.675-4.071-13.949 9.091-308.16 200.81-322.1 209.9z" fill="#11F95B"/>
 <path d="m437.8 1079.3l164.11-104.78c-1.804-2.921-1.165-1.899-3.043-4.87l-166.3 101.26 5.234 8.384z" fill="#77294B"/>
 <path d="m257.6 1072.9l4.964 11.348c1.329-0.597 317.52-142.68 320.75-144.12-1.297-3.005-0.844-1.969-2.142-4.894-6.383 2.716-317.37 135.03-323.57 137.67z" fill="#61D383"/>
 <path d="m569.21 758.88c1.151-4.347 0.559-2.236 1.491-5.305l-446.23-130.82c-2.07 6.996-1.3 4.268-4.109 14.59 9.715 2.631 444.53 120.36 448.85 121.53z" fill="#FF27F7"/>
 <path d="m349.44 743.59l214.6 38.213c0.021-0.12 0.378-1.875 1.118-5.812l-213.7-42.955-2.017 10.554z" fill="#4B0143"/>
 <path d="m426.54 733.32l140.65 33.479c0.992-4.069 1.118-4.736 1.537-6.147l-139.81-36.821c-0.626 2.194-0.868 3.309-2.375 9.489z" fill="#110BF5"/>
 <path d="m167.67 676.68l-2.91 13.338c2.358 0.494 392.91 82.238 400.83 83.896 0.71-3.214 0.471-2.108 1.134-5.261-6.306-1.454-395.15-91.073-399.06-91.973z" fill="#EF7535"/>
 <path d="m311.68 887.77l249.86-27.676c-0.395-3.36-0.276-2.183-0.548-5.488l-250.37 22.602c0.574 6.49 0.35 4.234 1.058 10.562z" fill="#8B87AB"/>
 <path d="m400.43 778.17l161.35 19.133c0.34-3.138 0.089-1.186 0.782-5.987l-160.88-22.736c-1.016 7.201-0.702 4.731-1.25 9.59z" fill="#095B23"/>
 <path d="m53.076 970.38l2.593 13.581c10.036-1.992 499.64-99.18 509.37-101.11-0.524-2.771-0.333-1.783-0.894-4.612-6.233 1.124-497.76 89.744-511.07 92.144z" fill="#0DA533"/>
 <path d="m135.14 914.32c0.614 5.288 0.335 3.125 1.605 12.285 15.979-2.218 414.91-57.598 425.72-59.099-0.553-3.801-0.381-2.44-0.626-4.738-7.486 0.904-414.87 50.122-426.7 51.552z" fill="#610359"/>
 <path d="m265.3 995.42l305.41-89.531c-0.9-2.964-0.349-0.995-1.508-5.367l-307.22 83.101c2.32 8.558 1.526 5.756 3.32 11.797z" fill="#6FABB1"/>
 <path d="m92.6 1007.5c3.091 12.645 2.763 11.282 3.427 13.765 6.739-1.756 465.86-121.38 472.51-123.11-0.368-1.303 0.065 0.338-1.195-4.857-7.694 1.85-467.08 112.36-474.74 114.2z" fill="#834953"/>
 <path d="m373.59 935.72l193.18-44.687s-0.396-1.91-1.244-5.741l-194.12 40.419 2.182 10.009z" fill="#65DD5B"/>
 <path d="m405.35 902.86l158.4-27.056c-0.957-5.755-0.688-3.883-0.947-5.875l-158.96 23.538c0.373 2.721 0.03 0.484 1.507 9.393z" fill="#D9638B"/>
 <path d="m413.68 804.06l146.7 8.877c0.336-5.531 0.181-3.521 0.425-6.044l-146.47-12.116c-0.325 3.566-0.147 1.131-0.657 9.283z" fill="#D563F5"/>
 <path d="m112.91 750.46c-0.869 7.898-0.591 5.147-1.292 12.879 15.259 1.398 434.19 39.77 449.41 41.164 0.238-2.914 0.133-1.88 0.483-4.843-21.72-2.382-432.52-47.437-448.6-49.2z" fill="#9D355D"/>
 <path d="m21.933 881.72c0.707 10.922 0.601 9.368 0.872 12.544 11.205-0.888 535.12-42.408 537.91-42.63-0.125-1.255-0.034-0.124-0.277-4.23-14.345 0.915-524.62 33.431-538.51 34.316z" fill="#8B2933"/>
 <path d="m92.824 791.51l-0.5 12.53c8.31 0.286 454.93 15.65 467.72 16.09l0.163-4.662c-4.576-0.234-457.78-23.466-467.38-23.958z" fill="#370BBB"/>
 <path d="m442.1 851.07l118.16-6.362c-0.131-1.883 0.013 0.593-0.249-6.145l-118.27 3.737c0.354 9.191 0.22 6.562 0.362 8.77z" fill="#0F57BF"/>
 <path d="m175.42 833.27l0.152 11.755c18.095-0.416 373.69-8.598 384.36-8.843-0.021-3.042-0.01-1.984-0.055-4.954-16.721 0.088-367.84 1.953-384.45 2.042z" fill="#BBD9BD"/>
 <path d="m365.16 827.91l194.7 0.747c0.058-3.59 0.044-2.333 0.065-5.847l-194.64-4.812-0.124 9.912z" fill="#473149"/>
 <path d="m217.03 725.06c-1.896 11.456-1.641 9.906-1.968 12.223 1.441 0.215 344.29 51.411 347.78 51.932 0.178-1.382-0.064 0.267 0.862-5.29-6.839-1.161-340.04-57.737-346.68-58.865z" fill="#CD3B6F"/>
 <path d="m648.87 629.46c2.564-2.257 1.687-1.477 4.174-3.712l-304.67-351.3-11.3 10.021c6.749 7.467 308.79 341.68 311.79 345z" fill="#3D6DD7"/>
 <path d="m472.28 497.79l159.67 148.39c3.257-3.531 1.68-1.863 4.119-4.338l-156.38-151.85c-3.837 3.925-2.026 2.012-7.408 7.8z" fill="#F11DB7"/>
 <path d="m542.66 530.84l100.15 104.28c1.41-1.404-0.436 0.394 4.684-4.392l-97.671-106.6c-7.447 6.942-5.46 5.045-7.163 6.718z" fill="#5BB115"/>
 <path d="m355.69 343.12c-7.265 7.105-5.475 5.316-9.663 9.593 1.715 1.692 285.78 281.91 291.54 287.59 1.762-1.828 0.589-0.656 3.869-3.836-4.507-4.626-282.9-290.42-285.75-293.35z" fill="#2D47FF"/>
 <path d="m362.46 598.49l225.21 111.7c1.923-3.913 1.129-2.365 2.477-4.882l-222.88-116.28c-2.193 4.154-1.239 2.279-4.807 9.461z" fill="#BF61C5"/>
 <path d="m496.32 554.46l125.21 103.55c2.359-2.76 1.536-1.786 3.917-4.635l-122.88-106.31-6.253 7.396z" fill="#E96F1F"/>
 <path d="m100.22 528.38c-1.803 4.413-4.728 11.561-5.2 12.82 9.523 3.742 474.09 186.31 483.33 189.94 0.016-0.046 1.753-4.273 1.78-4.338-5.853-2.42-467.41-193.26-479.91-198.42z" fill="#B38F3B"/>
 <path d="m199.54 525.45c-0.516 1.008-4.686 9.961-5.277 11.226 14.646 6.764 380.3 175.63 390.21 180.2 0.094-0.202 1.936-4.182 2.008-4.311-6.789-3.283-376.21-181.93-386.94-187.12z" fill="#A5D327"/>
 <path d="m265.3 664.05l305.41 89.531c1.069-3.612 1.194-4.13 1.612-5.335l-303.46-95.922c-0.929 2.814-1.427 4.565-3.558 11.726z" fill="#AFDDED"/>
 <path d="m113.42 580.96c-2.375 6.78-1.513 4.231-4.524 13.447 6.62 2.161 457.66 149.36 464.19 151.49 1.166-3.671 0.639-2.085 1.591-4.738-7.475-2.597-453.81-157.61-461.26-160.2z" fill="#014D51"/>
 <path d="m388.71 672.28l186.73 66.692c0.958-2.775 0.331-1.062 2.038-5.501l-185.22-70.797c-2.772 7.279-1.936 4.995-3.555 9.606z" fill="#398F31"/>
 <path d="m433.13 661.75l147.93 62.767c1.481-3.334 0.967-2.16 2.377-5.434l-146.5-66.042-3.809 8.709z" fill="#DFF3B7"/>
 <path d="m493.44 583.42l118.46 86.982c1.956-2.709 0.613-0.925 3.626-4.822l-116.5-89.589c-4.218 5.486-3.133 4.054-5.586 7.429z" fill="#C9B361"/>
 <path d="m269.76 375.33c-7.776 9.656-7.222 8.979-8.089 10.103 12.064 9.447 343.28 268.82 355.31 278.24 0.261-0.348 2.747-3.409 3.056-3.793-16.959-13.778-337.72-274.36-350.27-284.55z" fill="#99C927"/>
 <path d="m121.96 436.77c-4.323 7.77-3.284 5.852-6.055 11.071 9.907 5.309 473.15 253.52 475.63 254.85 0.954-1.842 0.392-0.81 2.018-3.677-12.563-6.986-459.42-255.48-471.59-262.24z" fill="#AF71D7"/>
 <path d="m230.64 398.97c-3.117 4.291-1.885 2.552-7.254 10.274 6.83 4.743 373.87 259.67 384.38 266.97 2.113-3.082 1.348-2.007 2.656-3.773-3.717-2.677-371.98-267.85-379.78-273.47z" fill="#8D0B13"/>
 <path d="m492.02 638.14l102.84 58.532c0.92-1.683-0.014-0.022 3.065-5.234l-101.49-60.833c-4.247 7.184-3.203 5.357-4.41 7.535z" fill="#ABF959"/>
 <path d="m277.34 478.9l-6.244 10.005c15.443 9.44 318.92 194.96 328.02 200.52 1.559-2.471 1.007-1.586 2.578-4.127-14.047-8.939-310.31-197.46-324.36-206.4z" fill="#233993"/>
 <path d="m439.78 577.13l163.29 106.05c3.394-5.148 2.176-3.378 3.173-4.794l-161-109.5c-1.227 1.77-0.048 0.015-5.462 8.238z" fill="#05F173"/>
 <path d="m370.99 410.44c-1.586 1.708-0.448 0.431-8.245 9.218 1.095 0.962 261.47 229.81 264.12 232.14 3.939-4.441 2.518-2.898 3.597-4.034-5.119-4.683-254.5-232.78-259.48-237.32z" fill="#C5679D"/>
 <path d="m785.42 563.54c3.351-0.58 2.177-0.399 5.479-0.839l-65.61-460.36c-9.18 1.308-6.001 0.823-14.959 2.29 1.626 9.933 74.368 454.49 75.09 458.91z" fill="#A59FAD"/>
 <path d="m708.4 357.14l53.997 211.18c3.526-0.84 2.293-0.539 5.736-1.4l-49.296-212.33-10.437 2.546z" fill="#0B770F"/>
 <path d="m749.65 423.08l27.706 141.9c5.522-1.072 3.393-0.693 6.251-1.146l-24.327-142.52c-3.952 0.646-1.565 0.213-9.63 1.764z" fill="#4F434B"/>
 <path d="m694.13 163.97c-1.407 0.273-0.283 0.021-13.346 2.867 0.526 2.351 87.665 391.74 89.432 399.64 0.595-0.129 4.751-1.052 5.26-1.143-1.287-6.344-80.551-397.43-81.346-401.36z" fill="#7D57FD"/>
 <path d="m561.7 382.62l129.43 215.51c0.318-0.187 4.649-2.755 4.726-2.794l-125.02-218.1c-0.574 0.311-8.583 5.055-9.145 5.387z" fill="#3B8F71"/>
 <path d="m698.06 417.85l49.396 154.79c2.529-0.84 0.655-0.259 5.726-1.751l-45.893-155.87c-7.651 2.27-5.5 1.608-9.229 2.826z" fill="#BF1B7D"/>
 <path d="m378.76 182.11c-6.948 4.839-4.544 3.135-11.247 7.984 5.997 8.291 298.54 412.73 304.36 420.77 2.289-1.686 1.46-1.099 3.86-2.738-3.621-5.196-289.24-414.92-296.98-426.02z" fill="#B52D5D"/>
 <path d="m463.9 233.28l-10.508 6.565c8.685 13.595 225.52 353 231.39 362.2 2.499-1.539 1.632-1 4.059-2.525-3.946-6.426-218.71-356.09-224.94-366.24z" fill="#751DA3"/>
 <path d="m444.53 385.32l208.52 240.44s1.649-1.375 4.317-3.644l-203.49-244.7-9.342 7.911z" fill="#5F79BF"/>
 <path d="m361.57 233.38l-11.018 8.857c4.403 5.395 304.4 372.96 308.74 378.28 2.377-1.907 1.521-1.214 3.935-3.185-4.888-6.223-296.79-377.76-301.66-383.96z" fill="#CFC99F"/>
 <path d="m543.96 458.95l121.15 156.97c4.29-3.305 2.649-2.079 4.733-3.577l-117.69-159.58c-3.267 2.378-1.206 0.827-8.187 6.184z" fill="#6F61D7"/>
 <path d="m587.08 474.05l90.684 132.66c1.107-0.809 1.628-1.115 4.973-3.313l-87.734-134.63c-5.1 3.356-6.112 3.99-7.923 5.282z" fill="#775B9D"/>
 <path d="m680.07 440.61l52.769 137.17c5.299-2.025 3.358-1.319 5.59-2.085l-49.678-138.32c-3.143 1.099-0.824 0.243-8.681 3.235z" fill="#AB319F"/>
 <path d="m604.21 144.67c-7.572 2.485-4.945 1.596-12.295 4.17 5.051 14.467 143.71 411.64 148.75 426.07 2.777-1.001 1.806-0.67 4.554-1.546-6.826-20.756-135.95-413.33-141.01-428.69z" fill="#6D2597"/>
 <path d="m446.35 116.74c-2.859 1.496-4.976 2.697-11.054 6.084 5.482 9.813 261.79 468.63 263.16 471.08 2.267-1.28 2.771-1.589 3.669-2.033-6.815-12.658-249.18-462.87-255.78-475.13z" fill="#CBC399"/>
 <path d="m558.38 143.46l-11.675 4.76c3.191 7.679 174.66 420.36 179.57 432.18 2.585-1.051 1.707-0.69 4.228-1.741-1.647-4.162-168.4-425.79-172.12-435.19z" fill="#1D451B"/>
 <path d="m649.45 485.89l55.047 104.74c3.207-1.708 2.051-1.119 5.387-2.753l-52.668-105.96c-4.791 2.367-3.141 1.525-7.766 3.969z" fill="#49D791"/>
 <path d="m554.54 236.02c-9.647 4.508-8.047 3.75-10.67 5.048 7.914 16.278 163.44 336.16 168.11 345.76 1.287-0.656 0.062-0.055 4.38-2.06-7.037-15.166-154.82-333.67-161.82-348.74z" fill="#57256B"/>
 <path d="m638.32 406.32l80.293 177.38s1.758-0.749 5.231-2.282l-76.479-179.06-9.045 3.96z" fill="#53EB31"/>
 <path d="m670.48 228.92c-11.748 3.177-10.708 2.897-11.951 3.265 0.401 1.401 95.683 334.7 96.654 338.09 0.099-0.036 5.044-1.366 5.146-1.393-1.771-6.706-88.127-333.45-89.849-339.97z" fill="#637787"/>
 <path d="m936.56 581.91c4.972 2.169 3.346 1.418 5.05 2.234l193.43-422.88c-3.626-1.682-1.644-0.805-13.845-6.147-3.996 9.237-182.85 422.68-184.63 426.79z" fill="#0D690B"/>
 <path d="m983.2 366.64l-68.571 206.91c2.237 0.707 0.325 0.062 5.577 1.924l73.149-205.34c-8.838-3.116-6.452-2.3-10.155-3.498z" fill="#632F05"/>
 <path d="m982.32 444.36l-53.305 134.4c2.298 0.951 5.867 2.404 5.867 2.404l56.489-133.09-9.051-3.711z" fill="#8981D5"/>
 <path d="m1075.5 196.34c-3.024-1.151-11.474-4.373-12.77-4.835-0.827 2.263-137.73 377.06-140.5 384.66l5.023 1.916c2.338-6.021 146.77-377.94 148.25-381.74z" fill="#0D81AF"/>
 <path d="m845.95 308.82l-7.721 251.27c3.416 0.137 2.227 0.094 5.566 0.199l12.767-251.07-10.612-0.404z" fill="#6D1745"/>
 <path d="m941.72 412.14l-41.996 156.96c5.152 1.378 3.147 0.808 5.769 1.608l45.524-155.98c-3.766-1.128-1.494-0.49-9.297-2.595z" fill="#C5015B"/>
 <path d="m800.82 41.184c-12.751 0.494-11.197 0.437-13.736 0.588 0.546 10.218 27.169 508.66 27.698 518.57 1.262-0.094-0.311-6e-3 4.778-0.188-0.229-6.329-18.252-505.46-18.74-518.97z" fill="#8D956B"/>
 <path d="m844.5 130.31l-12.337-0.155c-0.057 16.132-1.49 418.89-1.529 429.8 2.989 0.052 1.942 0.038 4.867 0.063 0.159-7.538 8.75-417.8 8.999-429.71z" fill="#13538B"/>
 <path d="m746 247.63l44.904 315.08c5.263-0.751 3.409-0.517 5.569-0.746l-38.334-315.94c-4.124 0.475-1.623 0.144-12.139 1.613z" fill="#1951A7"/>
 <path d="m758.67 74.981c-7.688 0.696-5.065 0.436-14.067 1.446 0.775 6.92 53.583 478.43 54.348 485.25 3.077-0.373 2.002-0.261 5.029-0.519-0.734-7.88-44.579-478.33-45.31-486.18z" fill="#35191B"/>
 <path d="m789.63 363.37l16.693 197.58c3.127-0.296 1.162-0.151 5.94-0.432l-12.395-197.9c-7.65 0.48-5.048 0.283-10.238 0.748z" fill="#83293F"/>
 <path d="m817.72 399.41l4.345 160.63c0.075-6e-3 5.971-0.078 6.074-0.08l-0.858-160.69c-0.456 5e-3 -9.106 0.106-9.561 0.136z" fill="#6F8D83"/>
 <path d="m914.28 421.55l-29.649 143.95c3.579 0.8 2.332 0.528 5.838 1.271l32.868-143.25-9.057-1.972z" fill="#8FD5DB"/>
 <path d="m1010.2 131.49c-1.344-0.359-10.738-2.645-12.605-3.1-3.56 14.904-101.29 424.08-104.84 438.94l4.679 1.131c5.459-21.158 108.73-421.31 112.77-436.97z" fill="#75D7DB"/>
 <path d="m892.6 22.767c-1.234-0.121-10.205-0.687-12.544-0.837-0.693 11.219-33.103 535.77-33.276 538.57 0.215 0.013 4.075 0.237 4.233 0.259 1.108-14.332 40.514-524.12 41.587-538z" fill="#95EDFD"/>
 <path d="m972.3 105.8l-12.38-2.356c-1.461 8.186-79.99 448.12-82.238 460.71 2.758 0.551 1.792 0.361 4.496 0.879 0.926-4.72 88.273-449.81 90.122-459.24z" fill="#194B55"/>
 <path d="m863.98 443.14l-10.285 117.88c4.873 0.413 2.905 0.212 6.066 0.593l12.924-117.62c-4.009-0.468-1.889-0.259-8.705-0.853z" fill="#316585"/>
 <path d="m919.11 181.6c-7.17-0.994-4.672-0.672-11.697-1.498-2.133 17.974-44.054 371.19-45.311 381.78 2.906 0.318 1.875 0.184 4.827 0.619 2.259-16.494 49.921-364.4 52.181-380.9z" fill="#87F767"/>
 <path d="m897.65 370.19l-28.226 192.65c2.274 0.299 0.406 0.015 5.656 0.899l32.327-192c-8.476-1.407-6.127-1.04-9.757-1.544z" fill="#855DEB"/>
 <path d="m1020.5 238.22c-7.235-2.342-4.709-1.553-11.828-3.684-0.419 1.396-100.17 333.38-101.18 336.77 3.141 0.914 2.055 0.577 5.088 1.586 2.13-6.603 105.86-328.26 107.92-334.67z" fill="#417F0D"/>
 <path d="m1053.7 679.41c1.858 2.857 1.213 1.875 3.057 4.647l390.96-251.76-8.315-12.63c-8.348 5.622-381.99 257.25-385.7 259.75z" fill="#B7B535"/>
 <path d="m1209.1 523.28l-169.49 137.07c3.027 3.732 1.837 2.215 3.707 4.683l172.46-133.32c-2.966-3.874-1.537-2.062-6.673-8.434z" fill="#A54375"/>
 <path d="m1166.4 588.28l-117.41 84.372c1.322 1.779 0.016-0.024 3.672 5.241l119.37-81.579c-5.199-7.495-3.882-5.651-5.63-8.034z" fill="#CDA1A1"/>
 <path d="m1378.7 429.76c-5.688-7.782-3.948-5.455-8.135-10.928-1.918 1.458-319.52 243-325.96 247.9 1.857 2.395 0.664 0.787 3.243 4.361 5.229-3.815 327.62-238.97 330.86-241.33z" fill="#7B0361"/>
 <path d="m1125 400.28l-142.64 207.01c4.323 2.983 2.806 1.901 4.51 3.164l146.81-204.07c-2.998-2.188-1.113-0.856-8.684-6.104z" fill="#77E3E1"/>
 <path d="m1149.6 539.06l-120.23 109.3c2.452 2.796 1.602 1.837 4.027 4.544l122.63-106.6-6.428-7.246z" fill="#074549"/>
 <path d="m1231.8 150.75c-6.599-3.893-8.859-5.249-11.929-6.956-5.065 8.89-252.17 442.59-257.08 451.21 0.958 0.508 1.364 0.776 4.068 2.385 3.231-5.447 258.04-435.01 264.94-446.64z" fill="#27D17B"/>
 <path d="m1220.5 249.42l-10.343-6.816c-8.783 13.532-228.07 351.36-234.01 360.52 2.396 1.584 1.539 1.023 4.004 2.621 4.217-6.251 233.68-346.44 240.35-356.32z" fill="#C587D3"/>
 <path d="m1074 294.73l-132.38 289.42 5.068 2.363 138.41-286.59c-0.88-0.436-5.288-2.486-11.095-5.196z" fill="#C599A7"/>
 <path d="m1178 156.31c-3.2-1.707-5.665-2.909-12.65-6.387-3.086 6.242-213.37 431.55-216.42 437.7 2.986 1.474 3.478 1.689 4.485 2.254 3.641-7.028 220.96-426.58 224.58-433.57z" fill="#79E7DB"/>
 <path d="m1048.2 415.71l-92.73 175.27c3.213 1.668 2.099 1.065 5.181 2.815l96.555-173.19c-5.487-3.076-3.565-2.03-9.006-4.893z" fill="#91ADDB"/>
 <path d="m1052.3 461.19l-83.248 137.45 5.065 3.157 86.266-135.57c-0.455-0.283-7.706-4.816-8.083-5.031z" fill="#DB67F3"/>
 <path d="m1121.3 532.11l-102.88 104.96c2.663 2.586 1.75 1.673 4.271 4.282l105.18-102.65c-3.982-4.092-2.58-2.684-6.569-6.586z" fill="#278B1F"/>
 <path d="m1359 340.14c-8.2-8.802-7.182-7.708-8.856-9.431-11.06 10.606-314.7 301.78-325.73 312.35 0.574 0.576 2.775 2.966 3.33 3.564 16.038-14.839 319.38-295.5 331.25-306.48z" fill="#795BD5"/>
 <path d="m1319.2 185.21c-6.011-4.584-3.849-2.967-10.083-7.546-6.664 9.051-318.25 432.28-319.91 434.54 2.103 1.512 1.377 0.97 3.377 2.528 8.701-11.442 318.19-418.44 326.62-429.52z" fill="#F56165"/>
 <path d="m1341.1 298.07c-2.95-2.867-1.311-1.324-9.138-8.625-5.663 6.089-310.02 333.31-318.73 342.68 3.17 2.928 2.141 1.947 3.373 3.172 3.178-3.302 317.84-330.3 324.5-337.23z" fill="#A1A5ED"/>
 <path d="m1067.3 522.9l-72.551 93.475c1.895 1.431 0.156 0.069 4.772 3.796l74.627-91.826c-6.307-5.085-4.334-3.529-6.848-5.445z" fill="#27A90D"/>
 <path d="m1255.4 333.01l-9-7.605c-11.537 13.947-238.25 288.02-245.05 296.24 2.231 1.91 1.429 1.23 3.728 3.164 10.839-12.637 239.48-279.16 250.32-291.8z" fill="#E77559"/>
 <path d="m1135.2 479.87l-128.14 146.6c0.181 0.162 4.219 3.737 4.315 3.836l131.21-143.85c-0.38-0.372-6.989-6.226-7.387-6.58z" fill="#25E13F"/>
 <path d="m1309.9 435.37c-0.952-1.179-0.039-0.098-7.961-9.465-1.107 0.948-264.49 226.32-267.17 228.62 0.516 0.612 3.158 3.714 3.484 4.127 5.36-4.405 266.45-219.01 271.65-223.28z" fill="#334553"/>
 <path d="m1099.4 824.08c0.036 3.473 0.018 2.264 0.086 5.657h465.01l-0.18-15.05c-10.064 0.203-460.44 9.302-464.92 9.393z" fill="#5F499B"/>
 <path d="m1314.6 776.98l-216.73 23.285c0.277 2.253 0.062 0.176 0.563 5.946l217.19-18.524c-0.855-9.659-0.603-7.072-1.022-10.707z" fill="#072571"/>
 <path d="m1243.5 808.46l-144.4 7.265c0.124 3.901 0.07 2.479 0.242 6.466l144.53-3.894-0.372-9.837z" fill="#AB9F53"/>
 <path d="m1507.8 790.34c-0.526-8.323-0.789-12.54-0.889-13.58-2.402 0.186-400.23 30.961-408.3 31.585 1e-3 0.012 0.339 5.411 0.342 5.453 6.448-0.369 404.77-23.224 408.85-23.458z" fill="#B9456F"/>
 <path d="m1310.4 628.12l-231.79 97.327c1.243 3.083 0.819 2.047 2.067 5.052l233.73-92.555-4.014-9.824z" fill="#F55145"/>
 <path d="m1256 758.02l-160.27 26.714c0.823 4.825 0.468 2.538 0.927 5.952l160.83-23.114c-0.672-4.857-0.282-2.342-1.485-9.552z" fill="#414F5F"/>
 <path d="m1534.9 475.59c-3.135-6.278-1.933-3.933-6.32-12.29-9.06 4.756-451.01 236.78-459.8 241.39 1.698 3.168 0.991 1.806 2.154 4.182 5.659-2.844 451.88-227.21 463.97-233.28z" fill="#D91375"/>
 <path d="m1472.1 552.64c-1.297-2.966-4.494-10.285-4.992-11.359-14.695 6.657-381.56 172.85-391.51 177.36l1.895 4.357c6.923-2.989 383.66-165.63 394.6-170.36z" fill="#1DA50B"/>
 <path d="m1324.4 511.75l-267.58 172.31c0.252 0.374 2.707 4.328 2.982 4.766l271.11-166.7c-6.461-10.353-5.677-9.103-6.511-10.373z" fill="#5573F7"/>
 <path d="m1486.6 451.22l-7.202-12.191c-5.965 3.593-412.4 248.37-418.28 251.91 1.533 2.614 0.976 1.675 2.568 4.331 6.855-3.954 416.09-240.11 422.92-244.05z" fill="#EB9981"/>
 <path d="m1237.4 599.71l-172.6 97.609c1.953 3.489 2.248 3.956 2.854 5.162l174.7-93.797c-1.143-2.213-1.951-3.602-4.955-8.974z" fill="#E1EB19"/>
 <path d="m1216.3 640.22l-144.22 70.86c1.271 2.519 0.457 0.828 2.556 5.36l145.76-67.639c-3.161-6.781-2.148-4.678-4.095-8.581z" fill="#CBA781"/>
 <path d="m1236 736.92l-143.32 32.553c0.697 3.255 1.272 5.838 1.272 5.838l144.01-29.333-1.966-9.058z" fill="#053D25"/>
 <path d="m1539.8 704.27c-0.412-2.44-0.177-1.204-2.384-12.751-15.041 2.925-427.99 83.217-442.99 86.134 0.997 5.156 0.694 3.403 0.901 4.741 21.521-3.782 428.55-75.324 444.48-78.124z" fill="#996DC5"/>
 <path d="m1590 551.99c-0.467-1.318-3.669-9.737-4.463-11.827-10.495 4.022-501.25 192.09-503.87 193.09l1.494 3.896c13.503-4.932 493.76-180.38 506.84-185.16z" fill="#3B634F"/>
 <path d="m1547.5 659.12l-2.996-12.249c-8.057 2.056-441.06 112.57-453.46 115.74 0.647 2.725 0.418 1.78 1.074 4.442 4.458-1.057 446.03-105.72 455.38-107.93z" fill="#8781C3"/>
 <path d="m1195.6 700.18l-111.54 39.489c1.638 4.589 0.934 2.516 1.948 5.699l112.41-36.949c-1.342-4.165-0.591-1.956-2.815-8.239z" fill="#6BADE5"/>
 <path d="m1456.5 642.02c-2.395-8.019-1.658-5.653-3.481-11.286-17.244 5.501-356.11 113.6-366.27 116.84 0.823 2.479 0.343 0.915 1.418 4.611 15.951-4.77 352.38-105.39 368.34-110.16z" fill="#0789E5"/>
 <path d="m1275.9 700.54l-187.06 54.036c0.56 1.817 0.04 0.038 1.511 5.491l188.17-50.014c-2.349-8.683-1.822-6.823-2.627-9.513z" fill="#452F3D"/>
 <path d="m1446.9 757.76c-0.985-8.555-0.65-5.894-1.538-12.278-1.444 0.196-344.94 46.818-348.44 47.293 0.425 2.918 0.217 1.186 0.666 5.336 6.892-0.795 342.62-39.578 349.32-40.351z" fill="#DFD35F"/>
</svg>
